<svg width="45" height="40" viewBox="0 0 45 40" fill="none" xmlns="http://www.w3.org/2000/svg">
<path d="M5.5 2.375H10.5" stroke="#3483FA" stroke-miterlimit="10" stroke-linecap="square"/>
<path d="M3.5 39.375H41.5C43.157 39.375 44.5 38.032 44.5 36.375V10.375C44.5 8.718 43.157 7.375 41.5 7.375H33.5L29.501 1.375H19.5L15.5 7.375H3.5C1.843 7.375 0.5 8.718 0.5 10.375V36.375C0.5 38.032 1.843 39.375 3.5 39.375Z" stroke="#3483FA" stroke-miterlimit="10" stroke-linecap="square"/>
<path d="M24.5 33.375C30.0228 33.375 34.5 28.8978 34.5 23.375C34.5 17.8522 30.0228 13.375 24.5 13.375C18.9772 13.375 14.5 17.8522 14.5 23.375C14.5 28.8978 18.9772 33.375 24.5 33.375Z" stroke="#3483FA" stroke-miterlimit="10" stroke-linecap="square"/>
<path d="M8.5 16.375C9.05228 16.375 9.5 15.9273 9.5 15.375C9.5 14.8227 9.05228 14.375 8.5 14.375C7.94772 14.375 7.5 14.8227 7.5 15.375C7.5 15.9273 7.94772 16.375 8.5 16.375Z" stroke="#3483FA" stroke-miterlimit="10" stroke-linecap="square"/>
<path d="M8.5 16.375C9.05228 16.375 9.5 15.9273 9.5 15.375C9.5 14.8227 9.05228 14.375 8.5 14.375C7.94772 14.375 7.5 14.8227 7.5 15.375C7.5 15.9273 7.94772 16.375 8.5 16.375Z" fill="#3483FA"/>
</svg>
