<svg width="45" height="40" viewBox="0 0 45 40" fill="none" xmlns="http://www.w3.org/2000/svg">
<path d="M40.5 16.375L38.731 3.111C38.599 2.117 37.751 1.375 36.749 1.375H8.251C7.249 1.375 6.401 2.117 6.269 3.111L4.5 16.375" stroke="#3483FA" stroke-miterlimit="10"/>
<path d="M12.5 33.375V39.375H3.5V33.375" stroke="#3483FA" stroke-miterlimit="10" stroke-linecap="square"/>
<path d="M41.5 33.375V39.375H32.5V33.375" stroke="#3483FA" stroke-miterlimit="10" stroke-linecap="square"/>
<path d="M44.5 33.375H0.5V22.778C0.5 21.87 0.809 20.988 1.377 20.279L4.5 16.375H40.5L43.623 20.279C44.191 20.989 44.5 21.87 44.5 22.778V33.375Z" stroke="#3483FA" stroke-miterlimit="10" stroke-linecap="square"/>
<path d="M36.5 28.375C38.1569 28.375 39.5 27.0319 39.5 25.375C39.5 23.7181 38.1569 22.375 36.5 22.375C34.8431 22.375 33.5 23.7181 33.5 25.375C33.5 27.0319 34.8431 28.375 36.5 28.375Z" stroke="#3483FA" stroke-miterlimit="10" stroke-linecap="square"/>
<path d="M8.5 28.375C10.1569 28.375 11.5 27.0319 11.5 25.375C11.5 23.7181 10.1569 22.375 8.5 22.375C6.84315 22.375 5.5 23.7181 5.5 25.375C5.5 27.0319 6.84315 28.375 8.5 28.375Z" stroke="#3483FA" stroke-miterlimit="10" stroke-linecap="square"/>
<path d="M19.5 25.375H25.5" stroke="#3483FA" stroke-miterlimit="10" stroke-linecap="square"/>
</svg>
