<svg width="25" height="26" viewBox="0 0 25 26" fill="none" xmlns="http://www.w3.org/2000/svg">
<path fill-rule="evenodd" clip-rule="evenodd" d="M3.65625 23.5H6.65625V11.5H3.65625V23.5Z" fill="#0864EE"/>
<path fill-rule="evenodd" clip-rule="evenodd" d="M8.65625 23.5H11.6562V11.5H8.65625V23.5Z" fill="#0864EE"/>
<path fill-rule="evenodd" clip-rule="evenodd" d="M13.6562 23.5H16.6562V11.5H13.6562V23.5Z" fill="#0864EE"/>
<path fill-rule="evenodd" clip-rule="evenodd" d="M18.6562 23.5H21.6562V11.5H18.6562V23.5Z" fill="#0864EE"/>
<path fill-rule="evenodd" clip-rule="evenodd" d="M1.65625 25.5H23.6562V22.5H1.65625V25.5Z" fill="#5697FA"/>
<path fill-rule="evenodd" clip-rule="evenodd" d="M13.3022 1.04655L24.1974 10.2656C24.4925 10.5153 24.5293 10.957 24.2796 11.2521C24.1466 11.4093 23.9511 11.5 23.7452 11.5H1.5672C1.1806 11.5 0.867203 11.1866 0.867203 10.8C0.867203 10.5941 0.957858 10.3986 1.11504 10.2656L12.0103 1.04655C12.3831 0.731065 12.9293 0.731065 13.3022 1.04655Z" fill="#5697FA"/>
<path fill-rule="evenodd" clip-rule="evenodd" d="M7.86591 8.5H17.476L12.6562 4.43628" fill="#0864EE"/>
</svg>
