<svg width="72" height="73" viewBox="0 0 72 73" fill="none" xmlns="http://www.w3.org/2000/svg">
<path d="M72 0.6875H0V72.6875H72V0.6875Z" fill="white"/>
<path d="M0 36.6875C0 56.5694 16.1181 72.6875 36 72.6875C55.8819 72.6875 72 56.5694 72 36.6875C72 16.8056 55.8819 0.6875 36 0.6875C16.1181 0.6875 0 16.8056 0 36.6875Z" fill="white"/>
<path d="M32.958 42.8291L33.0318 42.8381C33.5772 42.9128 34.1127 43.0118 34.5231 43.1945C34.9047 43.3628 35.1261 43.5761 35.3304 43.9541C35.6391 44.5283 35.6598 45.3338 35.3808 45.9431C35.1711 46.3949 34.7121 46.7756 34.2936 46.9781C33.8589 47.1887 33.4305 47.2886 32.9391 47.3444C32.0787 47.4389 31.1508 47.2607 30.3777 46.8863C29.9196 46.6631 29.3616 46.2779 29.0799 45.7829C28.975 45.6017 28.924 45.3943 28.9331 45.1851C28.9422 44.9758 29.0109 44.7736 29.1312 44.6021C29.5335 44.0522 30.3939 43.9307 31.0428 43.9541C31.5378 43.973 32.4279 44.1251 32.8968 44.2925C33.0273 44.3402 33.5061 44.5265 33.5898 44.612C33.6492 44.6714 33.687 44.7587 33.6618 44.8388C33.5538 45.1673 32.7564 45.3401 32.5269 45.3743C31.9104 45.4679 31.5909 45.2348 30.8898 44.9585C30.7029 44.8812 30.5069 44.8276 30.3066 44.7992C29.9889 44.7686 29.6046 44.8577 29.5434 45.2051C29.5137 45.3851 29.7234 45.5525 29.8836 45.6218C30.2589 45.7838 30.5649 45.8414 30.9348 45.8468C32.0274 45.8648 33.2559 45.6848 34.1496 45.0503C34.272 44.9639 34.3926 44.8352 34.3926 44.675C34.3971 44.3492 33.8274 44.1503 33.8274 44.1503C33.2244 43.8992 32.112 43.7768 31.5396 43.7291C30.9375 43.6778 29.9916 43.5986 29.7648 43.5653C29.5308 43.532 29.277 43.4843 29.0745 43.3943C28.8711 43.3016 28.6722 43.0973 28.6128 42.8687C28.5075 42.4583 28.6416 41.9552 28.8693 41.6276C29.4669 40.7699 30.8646 40.4432 31.9104 40.3136C32.922 40.1876 34.5564 40.1894 35.5509 40.7168C35.7039 40.7987 35.7822 40.8761 35.7489 41.039C35.685 41.3477 35.4537 41.5457 35.1729 41.633C34.8795 41.7257 34.2711 41.7635 34.0029 41.7797C32.805 41.8472 31.3569 41.8121 30.2166 42.1226C30.1275 42.1487 29.9736 42.1901 29.9232 42.2468C29.7432 42.4403 30.2544 42.4961 30.3642 42.5186C30.3957 42.5258 30.402 42.5276 30.4362 42.5303L32.958 42.8291ZM25.8327 37.4885C25.8327 37.4885 26.028 37.196 26.1909 36.9746C26.4879 36.5714 27.0252 36.0116 27.4311 35.6642C27.5553 35.5589 27.7011 35.4392 27.7011 35.4392C27.7011 35.4392 27.4725 35.4626 27.3429 35.4887C27.036 35.5481 26.5851 35.8487 26.3592 36.0413C25.9884 36.3599 25.5789 36.8765 25.7634 37.3355C25.7904 37.4003 25.8327 37.4885 25.8327 37.4885ZM27.8982 38.0402C28.4776 38.0001 29.0408 37.8317 29.547 37.547C30.0492 37.2653 30.7872 36.719 30.7107 36.0737C30.6997 35.9776 30.6631 35.8863 30.6046 35.8092C30.5462 35.7321 30.4682 35.6721 30.3786 35.6354C30.1536 35.5382 30.0384 35.5544 29.7522 35.6381C29.5452 35.7002 29.4507 35.7362 29.2545 35.8487C28.6785 36.1826 27.8622 36.899 27.4185 37.4696C27.3168 37.6046 27.2124 37.7549 27.1314 37.8593C27.0801 37.9223 27.0414 37.9817 27.0459 37.997C27.063 38.0627 27.6687 38.0564 27.8982 38.0402ZM26.4024 39.1382C26.3421 39.2012 26.2782 39.356 26.2116 39.4685C26.1733 39.532 26.1246 39.5886 26.0676 39.6359C25.9146 39.7484 25.785 39.7547 25.6374 39.6242C25.5352 39.5293 25.4529 39.4148 25.3954 39.2876C25.3379 39.1604 25.3064 39.0231 25.3026 38.8835C25.299 38.7629 25.3188 38.6306 25.2972 38.5289C25.2594 38.3579 25.0884 38.1824 24.9957 38.0186C24.8788 37.7861 24.8085 37.533 24.7887 37.2734C24.7527 36.5984 25.1082 35.9756 25.5708 35.4842C26.0624 34.9722 26.6543 34.5672 27.3096 34.2944C27.936 34.0307 28.8549 33.8507 29.5434 34.0883C29.7684 34.1648 30.0798 34.3565 30.2364 34.5554C30.2706 34.5968 30.2976 34.6427 30.3318 34.6634C30.3624 34.6832 30.4425 34.6904 30.5064 34.7021C30.7251 34.7408 31.0419 34.9064 31.1715 35.0171C31.4307 35.2403 31.5729 35.4554 31.6386 35.765C31.77 36.3905 31.4109 37.0754 30.9996 37.4921C30.2985 38.2094 29.6064 38.7161 28.7082 39.0662C28.314 39.2192 27.7002 39.3632 27.2529 39.3236C27.1143 39.3119 26.9712 39.275 26.8362 39.266C26.7179 39.2472 26.6016 39.2174 26.4888 39.1769C26.4546 39.1517 26.4105 39.1292 26.4024 39.1382ZM27.2043 40.5224C27.2313 40.5278 27.2745 40.5404 27.3105 40.553C27.6255 40.6736 27.7542 40.9643 27.8325 41.2838C28.0125 42.0263 28.0881 43.6697 28.1178 44.3123C28.1403 44.7947 28.152 45.2699 28.1718 45.747C28.1898 46.1519 28.2213 46.6883 28.1376 47.0672C28.1038 47.2196 28.0138 47.3536 27.8856 47.4425C27.7362 47.5379 27.396 47.546 27.2097 47.5055C26.7498 47.411 26.5986 47.115 26.5329 46.6595C26.3763 45.5723 26.4519 43.4375 26.5446 42.5375C26.5743 42.2405 26.6868 41.2883 26.8425 40.8887C26.8947 40.7564 27.0081 40.4837 27.2043 40.5224ZM13.1904 42.3314C13.1904 42.3314 12.5046 42.38 12.0321 42.4322C11.4318 42.497 10.3041 42.6923 9.65251 42.9245C9.45811 42.9947 9.06121 43.1603 9.02611 43.3619C8.99011 43.5689 9.11881 43.7327 9.26281 43.9019C9.34561 43.9991 9.81541 44.4509 9.94771 44.5616C10.5012 45.0224 11.6217 45.7343 12.447 46.0799C12.7305 46.1969 13.1994 46.3652 13.1994 46.3652C13.1994 46.3652 13.1652 45.0296 13.1706 43.7129C13.176 43.019 13.1904 42.3314 13.1904 42.3314ZM25.7616 42.8624C25.8012 43.2224 25.7094 43.9001 25.6932 43.9892C25.6635 44.1962 25.5078 44.6714 25.4826 44.729C25.3689 44.9894 25.2421 45.2438 25.1028 45.4913C24.8778 45.8963 24.3432 46.538 24.0264 46.8116C22.8465 47.8313 21.0186 48.4136 19.4517 48.6044C18.3154 48.7389 17.1655 48.7055 16.0389 48.5054C15.7161 48.4434 15.3945 48.3756 15.0741 48.302C15.0741 48.302 15.0768 48.5324 15.057 48.6953C15.048 48.7691 14.9922 48.9645 14.9616 49.0284C14.8797 49.1966 14.7456 49.2848 14.5485 49.3217C14.3136 49.3649 14.0625 49.3802 13.8438 49.2875C13.4865 49.1372 13.3578 48.8015 13.2948 48.4145C13.2444 48.1058 13.1922 47.5685 13.1922 47.5685C13.1922 47.5685 12.924 47.4407 12.7008 47.3291C12.0318 46.9957 11.3934 46.6042 10.7928 46.1591C10.4559 45.8926 10.1267 45.6165 9.80551 45.3311C9.38611 44.9333 9.00811 44.5364 8.72011 44.0261C8.49601 43.6301 8.43211 43.2755 8.60131 42.8552C8.83531 42.2675 9.67861 41.8256 10.2546 41.5727C10.6776 41.3864 11.9934 40.9562 12.5388 40.8779C12.7971 40.8401 13.1976 40.7681 13.2228 40.7537C13.2318 40.7473 13.24 40.7397 13.2471 40.7312C13.2597 40.7132 13.2804 40.1318 13.2759 39.9194C13.2714 39.7097 13.4307 38.3354 13.4829 38.0465C13.5099 37.889 13.6278 37.2851 13.7502 37.1249C13.8294 37.0178 13.9698 37.0259 14.085 37.097C14.7114 37.4858 14.9013 38.8376 14.9481 39.5261C14.976 39.9455 14.9895 40.5755 14.9895 40.5755C14.9895 40.5755 15.7086 40.5539 16.1505 40.5665C16.5807 40.5764 17.0541 40.6439 17.5005 40.716C18.072 40.8068 19.1853 41.0507 19.8234 41.3738C20.349 41.6411 20.8413 42.0893 21.0006 42.5645C21.1491 43.0001 21.1266 43.3025 20.9007 43.6949C20.6469 44.1386 20.1663 44.4689 19.6803 44.4959C19.5363 44.5049 18.9909 44.433 18.8226 44.3033C18.7569 44.2512 18.7596 44.1584 18.8073 44.0954C18.8253 44.0729 19.0809 43.9379 19.2303 43.8587C19.3059 43.8173 19.368 43.7741 19.4265 43.7201C19.5525 43.6103 19.6641 43.4888 19.6515 43.3475C19.6344 43.163 19.4391 43.0487 19.2537 42.9767C18.3825 42.6302 16.641 42.3422 15.8004 42.2927C15.471 42.2738 15.003 42.2567 15.003 42.2567L15.102 46.9016C15.102 46.9016 15.489 46.9754 15.795 47.0249C15.9687 47.0519 16.7112 47.1185 16.9083 47.1239C18.4086 47.1626 20.0853 47.0294 21.4614 46.3778C22.0662 46.0925 22.6206 45.7388 23.0409 45.26C23.5944 44.6255 23.8833 43.757 23.8077 42.8498C23.724 41.858 23.0265 40.6826 22.4694 39.9671C20.9988 38.0744 18.4761 36.5183 16.2576 35.6057C13.9914 34.6742 11.7531 34.1387 9.35011 34.0496C8.72911 34.0262 7.37911 34.0586 6.69601 34.2476C6.59881 34.2746 6.49981 34.3079 6.40891 34.3286C6.33279 34.3476 6.25997 34.3779 6.19291 34.4186C6.18126 34.4286 6.17015 34.4391 6.15961 34.4501C6.15961 34.4501 6.20191 34.4735 6.24061 34.4906C6.31351 34.5221 6.61861 34.541 6.77611 34.5707C6.91651 34.5968 7.06411 34.6715 7.12171 34.775C7.17751 34.8731 7.18471 34.9505 7.11721 35.0324C6.96331 35.2214 6.38101 35.189 6.12361 35.1494C5.85721 35.1062 5.52511 35.0243 5.46481 34.793C5.39371 34.5203 5.52331 34.2521 5.66371 34.0037C5.94631 33.5087 6.34951 33.2504 6.94081 33.0884C7.82106 32.8532 8.72364 32.7115 9.63361 32.6654C11.4291 32.5979 13.1274 32.912 14.8662 33.4403C15.8607 33.7409 17.1639 34.2458 18.1179 34.7057C18.9305 35.1082 19.7212 35.5534 20.4867 36.0395C20.6775 36.1655 21.7962 36.9863 21.9699 37.1312C22.3326 37.4282 22.806 37.853 23.1489 38.1932C23.8131 38.852 24.6384 39.86 25.0398 40.661C25.1361 40.8536 25.2108 41.0417 25.3368 41.264C25.3782 41.3396 25.5627 41.795 25.5933 41.9273C25.623 42.0578 25.668 42.2486 25.6743 42.2558C25.6833 42.3215 25.7679 42.7112 25.7616 42.8624ZM48.3237 41.8364C47.4831 42.0299 45.2727 42.137 45.2727 42.137L44.9937 43.01C44.9937 43.01 46.098 42.9155 46.9017 42.9992C46.9017 42.9992 47.1627 42.9695 47.1924 43.2944C47.2023 43.5986 47.1672 43.9244 47.1672 43.9244C47.1672 43.9244 47.1492 44.1224 46.8702 44.1719C46.5687 44.2224 44.4897 44.3024 44.4897 44.3024L44.1531 45.4409C44.1531 45.4409 44.028 45.7037 44.3079 45.629C44.5689 45.5588 46.7451 45.1511 47.0286 45.2097C47.3328 45.2852 47.6676 45.6893 47.5713 46.0592C47.4543 46.5182 45.2826 47.9024 43.9596 47.8061C43.9596 47.8061 43.2639 47.8511 42.6762 46.9133C42.1299 46.0178 42.8832 44.3258 42.8832 44.3258C42.8832 44.3258 42.5376 43.5356 42.7887 43.2674C42.7887 43.2674 42.9372 43.1324 43.3737 43.1018L43.9056 42.0002C43.9056 42.0002 43.299 42.0416 42.9381 41.5952C42.6024 41.1722 42.5745 40.9778 42.8319 40.8608C43.1082 40.724 45.6336 40.2632 47.3724 40.3208C47.3724 40.3208 47.9754 40.2632 48.5001 41.3108C48.501 41.3108 48.7548 41.7347 48.3237 41.8364ZM41.7861 46.0727C41.5638 46.5965 40.9752 47.1563 40.2435 46.8089C39.5217 46.4597 38.3715 44.1071 38.3715 44.1071C38.3715 44.1071 37.935 43.2305 37.8513 43.253C37.8513 43.253 37.7577 43.082 37.7001 44.0405C37.6398 44.9945 37.7109 46.8575 37.3311 47.1491C36.9702 47.4434 36.5328 47.3264 36.3069 46.9835C36.0999 46.6451 36.0153 45.8423 36.1269 44.4311C36.2601 43.0163 36.5877 41.5124 37.0071 41.0444C37.4265 40.5791 37.7631 40.9166 37.8936 41.039C37.8936 41.039 38.4543 41.5475 39.3786 43.0388L39.5415 43.3151C39.5415 43.3151 40.3812 44.7245 40.4694 44.7209C40.4694 44.7209 40.5387 44.7857 40.599 44.7389C40.6872 44.7137 40.6512 44.2619 40.6512 44.2619C40.6512 44.2619 40.4775 42.7265 39.7116 40.1264C39.7116 40.1264 39.5946 39.8024 39.6738 39.4991C39.7521 39.1913 40.0608 39.3362 40.0608 39.3362C40.0608 39.3362 41.2488 39.9338 41.8248 41.867C42.3963 43.7993 42.012 45.5453 41.7861 46.0727ZM54.5688 44.9144C54.0288 45.8576 52.5015 47.8331 50.4738 47.3669C49.8033 48.9914 49.2408 50.6348 48.9195 53.0936C48.9195 53.0936 48.8493 53.5715 48.4515 53.4059C48.0582 53.2673 47.4093 52.6139 47.2788 51.7085C47.1384 50.5205 47.6676 48.509 48.7494 46.205C48.4344 45.692 48.2184 44.9594 48.402 43.9154C48.402 43.9154 48.6747 41.9777 50.6205 40.2308C50.6205 40.2308 50.8545 40.0283 50.9886 40.0913C51.1371 40.1543 51.0678 40.7843 50.9499 41.0903C50.8275 41.3963 49.9599 42.8966 49.9599 42.8966C49.9599 42.8966 49.4199 43.9091 49.572 44.7092C50.5926 43.1405 52.9128 39.9752 54.351 40.9724C54.8352 41.318 55.0575 42.0704 55.0575 42.8804C55.0575 43.5914 54.8865 44.3474 54.5688 44.9144ZM54.1494 42.4295C54.1494 42.4295 54.0693 41.8058 53.4591 42.4925C52.9344 43.0721 51.9876 44.1593 51.2271 45.6353C52.0254 45.5453 52.7967 45.1115 53.0307 44.891C53.4087 44.5545 54.2907 43.6427 54.1494 42.4295ZM65.7423 42.2864H62.0253C61.9517 41.0236 61.7957 39.7669 61.5582 38.5244C61.5462 38.4611 61.5125 38.404 61.4629 38.3629C61.4133 38.3218 61.3508 38.2994 61.2864 38.2994H60.4305C60.3933 38.2997 60.3566 38.3082 60.323 38.3242C60.2894 38.3402 60.2597 38.3634 60.2361 38.3922C60.2125 38.421 60.1955 38.4546 60.1863 38.4907C60.1771 38.5267 60.176 38.5644 60.183 38.6009C60.426 39.8258 60.579 41.0336 60.6555 42.2882H57.0789C57.0393 42.2881 57.0001 42.2958 56.9635 42.3109C56.9268 42.3259 56.8935 42.348 56.8655 42.3759C56.8374 42.4038 56.8151 42.437 56.7998 42.4735C56.7845 42.5101 56.7766 42.5493 56.7765 42.5888V43.361C56.7765 43.5284 56.9115 43.6634 57.0789 43.6634H60.7059C60.7086 43.8551 60.7104 44.0261 60.7104 44.1854C60.7104 45.2996 60.6627 46.2158 60.5493 47.2526C60.5449 47.292 60.549 47.3318 60.5615 47.3694C60.5739 47.407 60.5943 47.4415 60.6213 47.4704C60.6474 47.4997 60.6792 47.5231 60.7149 47.5392C60.7505 47.5553 60.7892 47.5638 60.8283 47.564H61.623C61.7778 47.564 61.9056 47.447 61.9218 47.2931C62.0298 46.2491 62.0766 45.3203 62.0766 44.1854C62.0766 44.0252 62.0748 43.8533 62.073 43.6634H65.7396C65.9052 43.6634 66.042 43.5284 66.042 43.3619V42.5888C66.0426 42.5492 66.0353 42.5098 66.0205 42.473C66.0057 42.4363 65.9836 42.4028 65.9557 42.3746C65.9278 42.3465 65.8946 42.3242 65.8579 42.309C65.8213 42.2939 65.782 42.2862 65.7423 42.2864Z" fill="#01147B"/>
<path d="M61.056 36.4823C59.1658 31.826 55.9444 27.8305 51.795 24.9956C47.5412 22.076 42.5004 20.5186 37.341 20.5298C33.1235 20.5252 28.9704 21.565 25.2525 23.5563C21.5347 25.5476 18.3677 28.4285 16.0344 31.9418C16.0085 31.98 15.9918 32.0238 15.9857 32.0695C15.9796 32.1153 15.9843 32.1619 15.9993 32.2055C16.0308 32.2955 16.0992 32.3639 16.1883 32.3945L16.8543 32.6186C16.9315 32.6447 17.0151 32.6447 17.0923 32.6187C17.1695 32.5927 17.2361 32.5421 17.2818 32.4746C19.4744 29.259 22.4021 26.6125 25.8219 24.7544C29.3612 22.8447 33.3194 21.8443 37.341 21.8429C42.1983 21.8429 46.8846 23.2739 50.895 25.9847C54.7951 28.6137 57.8475 32.3192 59.6808 36.6506C59.7348 36.7802 59.8617 36.8639 60.0021 36.8639H60.7977C60.8431 36.8638 60.8878 36.8524 60.9279 36.8309C60.9679 36.8094 61.002 36.7784 61.0272 36.7406C61.053 36.7033 61.0691 36.6602 61.0741 36.6151C61.0792 36.57 61.0729 36.5244 61.056 36.4823Z" fill="url(#paint0_radial_1_215)"/>
<defs>
<radialGradient id="paint0_radial_1_215" cx="0" cy="0" r="1" gradientUnits="userSpaceOnUse" gradientTransform="translate(61.2 36.6875) rotate(180) scale(45 45)">
<stop stop-color="#01147B"/>
<stop offset="0.025" stop-color="#011098"/>
<stop offset="0.064" stop-color="#010ABD"/>
<stop offset="0.103" stop-color="#0006DA"/>
<stop offset="0.142" stop-color="#0003EE"/>
<stop offset="0.179" stop-color="#0001FB"/>
<stop offset="0.216" stop-color="#0000FF"/>
<stop offset="1" stop-color="#00FFFF" stop-opacity="0"/>
</radialGradient>
</defs>
</svg>
