<svg width="45" height="46" viewBox="0 0 45 46" fill="none" xmlns="http://www.w3.org/2000/svg">
<path d="M44.5 1.375H0.5V45.375H44.5V1.375Z" stroke="#3483FA" stroke-miterlimit="10" stroke-linecap="square"/>
<path d="M37.5 17.375H7.5V38.375H37.5V17.375Z" stroke="#3483FA" stroke-miterlimit="10" stroke-linecap="square"/>
<path d="M28.5 25.375V27.375H16.5V25.375" stroke="#3483FA" stroke-miterlimit="10" stroke-linecap="square"/>
<path d="M22.5 11.375C23.6046 11.375 24.5 10.4796 24.5 9.375C24.5 8.27043 23.6046 7.375 22.5 7.375C21.3954 7.375 20.5 8.27043 20.5 9.375C20.5 10.4796 21.3954 11.375 22.5 11.375Z" stroke="#3483FA" stroke-miterlimit="10" stroke-linecap="square"/>
<path d="M9.5 11.375C10.6046 11.375 11.5 10.4796 11.5 9.375C11.5 8.27043 10.6046 7.375 9.5 7.375C8.39543 7.375 7.5 8.27043 7.5 9.375C7.5 10.4796 8.39543 11.375 9.5 11.375Z" stroke="#3483FA" stroke-miterlimit="10" stroke-linecap="square"/>
<path d="M35.5 11.375C36.6046 11.375 37.5 10.4796 37.5 9.375C37.5 8.27043 36.6046 7.375 35.5 7.375C34.3954 7.375 33.5 8.27043 33.5 9.375C33.5 10.4796 34.3954 11.375 35.5 11.375Z" stroke="#3483FA" stroke-miterlimit="10" stroke-linecap="square"/>
</svg>
