<svg width="45" height="45" viewBox="0 0 45 45" fill="none" xmlns="http://www.w3.org/2000/svg">
<path d="M43 8.97509L37.1 14.8751L30 7.77509L35.9 1.87509C34.5 1.47509 33.1 1.27509 31.5 1.37509C25.9 1.87509 21.4 6.87509 21.5 12.4751C21.5 13.5751 21.7 14.6751 22 15.6751L2.80001 32.6751C-0.0999887 35.1751 -0.199989 39.6751 2.50001 42.3751C5.20001 45.0751 9.60001 44.9751 12.2 42.0751L29.2 22.8751C30.9 23.3751 32.8 23.5751 34.8 23.1751C38.8 22.3751 42.1 19.3751 43.2 15.4751C43.7 13.1751 43.6 10.9751 43 8.97509Z" stroke="#3483FA" stroke-miterlimit="10" stroke-linecap="square"/>
</svg>
