<svg width="45" height="40" viewBox="0 0 45 40" fill="none" xmlns="http://www.w3.org/2000/svg">
<path d="M37 29.375C37.8284 29.375 38.5 28.7034 38.5 27.875C38.5 27.0466 37.8284 26.375 37 26.375C36.1716 26.375 35.5 27.0466 35.5 27.875C35.5 28.7034 36.1716 29.375 37 29.375Z" fill="#3483FA"/>
<path d="M33 33.375C33.8284 33.375 34.5 32.7034 34.5 31.875C34.5 31.0466 33.8284 30.375 33 30.375C32.1716 30.375 31.5 31.0466 31.5 31.875C31.5 32.7034 32.1716 33.375 33 33.375Z" fill="#3483FA"/>
<path d="M34.5 19.375H10.5C4.977 19.375 0.5 23.852 0.5 29.375C0.5 34.898 4.977 39.375 10.5 39.375C14.598 39.375 18.111 36.904 19.656 33.375H25.344C26.888 36.904 30.401 39.375 34.5 39.375C40.023 39.375 44.5 34.898 44.5 29.375C44.5 23.852 40.023 19.375 34.5 19.375Z" stroke="#3483FA" stroke-miterlimit="10" stroke-linecap="square"/>
<path d="M10.5 25.375V33.375" stroke="#3483FA" stroke-miterlimit="10" stroke-linecap="square"/>
<path d="M6.5 29.375H14.5" stroke="#3483FA" stroke-miterlimit="10" stroke-linecap="square"/>
<path d="M22.5 13.375V1.375" stroke="#3483FA" stroke-miterlimit="10" stroke-linecap="square"/>
</svg>
