<svg width="45" height="46" viewBox="0 0 45 46" fill="none" xmlns="http://www.w3.org/2000/svg">
<path d="M5.52023 22.5386C12.5098 25.7385 17.6637 32.2535 19.1032 40.0356" stroke="#3483FA" stroke-miterlimit="10"/>
<path d="M39.4798 22.5386C32.4902 25.7385 27.3363 32.2535 25.8968 40.0356" stroke="#3483FA" stroke-miterlimit="10"/>
<path d="M6.58936 17.375C6.58936 17.375 14.563 16.375 22.5003 16.375C30.4375 16.375 38.4108 17.375 38.4108 17.375" stroke="#3483FA" stroke-miterlimit="10"/>
<path d="M22.5 45.375C34.6503 45.375 44.5 35.5253 44.5 23.375C44.5 11.2247 34.6503 1.375 22.5 1.375C10.3497 1.375 0.5 11.2247 0.5 23.375C0.5 35.5253 10.3497 45.375 22.5 45.375Z" stroke="#3483FA" stroke-miterlimit="10" stroke-linecap="square"/>
<path d="M22.5 40.375C31.8888 40.375 39.5 32.7638 39.5 23.375C39.5 13.9862 31.8888 6.375 22.5 6.375C13.1112 6.375 5.5 13.9862 5.5 23.375C5.5 32.7638 13.1112 40.375 22.5 40.375Z" stroke="#3483FA" stroke-miterlimit="10" stroke-linecap="square"/>
<path d="M22.5 29.375C24.7091 29.375 26.5 27.5841 26.5 25.375C26.5 23.1659 24.7091 21.375 22.5 21.375C20.2909 21.375 18.5 23.1659 18.5 25.375C18.5 27.5841 20.2909 29.375 22.5 29.375Z" stroke="#3483FA" stroke-miterlimit="10" stroke-linecap="square"/>
</svg>
