<svg width="33" height="46" viewBox="0 0 33 46" fill="none" xmlns="http://www.w3.org/2000/svg">
<path d="M16.5 31.375C10.977 31.375 6.5 26.898 6.5 21.375V11.375C6.5 5.852 10.977 1.375 16.5 1.375C22.023 1.375 26.5 5.852 26.5 11.375V21.375C26.5 26.898 22.023 31.375 16.5 31.375Z" stroke="#3483FA" stroke-miterlimit="10" stroke-linecap="square"/>
<path d="M6.5 45.375H26.5" stroke="#3483FA" stroke-miterlimit="10" stroke-linecap="square"/>
<path d="M16.5 37.375V45.375" stroke="#3483FA" stroke-miterlimit="10" stroke-linecap="square"/>
<path d="M32.5 21.375C32.5 30.212 25.337 37.375 16.5 37.375C7.663 37.375 0.5 30.212 0.5 21.375" stroke="#3483FA" stroke-miterlimit="10" stroke-linecap="square"/>
<path d="M6.5 13.375H11.5" stroke="#3483FA" stroke-miterlimit="10" stroke-linecap="square"/>
<path d="M6.5 20.375H11.5" stroke="#3483FA" stroke-miterlimit="10" stroke-linecap="square"/>
<path d="M21.5 13.375H26.5" stroke="#3483FA" stroke-miterlimit="10" stroke-linecap="square"/>
<path d="M21.5 20.375H26.5" stroke="#3483FA" stroke-miterlimit="10" stroke-linecap="square"/>
</svg>
