<svg width="45" height="46" viewBox="0 0 45 46" fill="none" xmlns="http://www.w3.org/2000/svg">
<path d="M22.5 45.375C33.5457 45.375 42.5 36.4207 42.5 25.375C42.5 14.3293 33.5457 5.375 22.5 5.375C11.4543 5.375 2.5 14.3293 2.5 25.375C2.5 36.4207 11.4543 45.375 22.5 45.375Z" stroke="#3483FA" stroke-miterlimit="10" stroke-linecap="square"/>
<path d="M22.5 32.375L25.5 28.375H19.5L22.5 32.375Z" stroke="#3483FA" stroke-miterlimit="10" stroke-linecap="square"/>
<path d="M22.5 32.375L25.5 28.375H19.5L22.5 32.375Z" fill="#3483FA"/>
<path d="M22.5 32.375V36.375" stroke="#3483FA" stroke-miterlimit="10" stroke-linecap="square"/>
<path d="M18.5 36.375H26.5" stroke="#3483FA" stroke-miterlimit="10" stroke-linecap="square"/>
<path d="M15.5 23.375C16.6046 23.375 17.5 22.4796 17.5 21.375C17.5 20.2704 16.6046 19.375 15.5 19.375C14.3954 19.375 13.5 20.2704 13.5 21.375C13.5 22.4796 14.3954 23.375 15.5 23.375Z" fill="#3483FA"/>
<path d="M29.5 23.375C30.6046 23.375 31.5 22.4796 31.5 21.375C31.5 20.2704 30.6046 19.375 29.5 19.375C28.3954 19.375 27.5 20.2704 27.5 21.375C27.5 22.4796 28.3954 23.375 29.5 23.375Z" fill="#3483FA"/>
<path d="M12.442 8.085C12.471 7.846 12.5 7.622 12.5 7.375C12.5 4.061 9.814 1.375 6.5 1.375C3.186 1.375 0.5 4.061 0.5 7.375C0.5 10.689 3.186 13.375 6.5 13.375" stroke="#3483FA" stroke-miterlimit="10"/>
<path d="M32.558 8.085C32.529 7.846 32.5 7.622 32.5 7.375C32.5 4.061 35.186 1.375 38.5 1.375C41.814 1.375 44.5 4.061 44.5 7.375C44.5 10.689 41.814 13.375 38.5 13.375" stroke="#3483FA" stroke-miterlimit="10"/>
</svg>
