<svg width="28" height="26" viewBox="0 0 28 26" fill="none" xmlns="http://www.w3.org/2000/svg">
<path fill-rule="evenodd" clip-rule="evenodd" d="M10.1785 0.271729L25.5333 15.6266L16.0842 25.0757L0.729374 9.72086L10.1785 0.271729Z" fill="#5697FA"/>
<path fill-rule="evenodd" clip-rule="evenodd" d="M4.60462 8.20789L8.66554 4.14697C8.97674 4.65632 9.53792 4.99629 10.1785 4.99629C10.8191 4.99629 11.3803 4.65632 11.6915 4.14697L21.6581 14.1136C21.1487 14.4248 20.8088 14.986 20.8088 15.6266C20.8088 16.2671 21.1487 16.8283 21.6581 17.1395L17.5972 21.2005C17.286 20.6911 16.7248 20.3511 16.0842 20.3511C15.4436 20.3511 14.8824 20.6911 14.5713 21.2005L4.60462 11.2338C5.11397 10.9226 5.45394 10.3614 5.45394 9.72086C5.45394 9.08027 5.11397 8.51909 4.60462 8.20789Z" fill="white"/>
<path d="M13.1314 16.8077C15.4145 16.8077 17.2654 14.9569 17.2654 12.6737C17.2654 10.3906 15.4145 8.53973 13.1314 8.53973C10.8482 8.53973 8.99736 10.3906 8.99736 12.6737C8.99736 14.9569 10.8482 16.8077 13.1314 16.8077Z" fill="#3483FA"/>
<path fill-rule="evenodd" clip-rule="evenodd" d="M11.2521 14.1395L10.9877 14.4039C10.771 14.6206 10.8989 15.0215 11.3301 15.0172C11.3472 15.0167 11.3635 15.0097 11.3757 14.9977L11.7332 14.6401C12.4268 15.1927 13.2048 15.2144 13.7271 14.6921C14.2494 14.1698 14.2451 13.5348 13.6816 12.5964L13.4042 12.1196C13.1571 11.6341 13.2048 11.4478 13.3803 11.2722C13.5559 11.0967 13.8766 11.088 14.1757 11.3329C14.212 11.3629 14.2467 11.3948 14.2797 11.4283C14.3668 11.5187 14.4418 11.6199 14.503 11.7295C14.6246 11.9479 14.7178 12.181 14.7804 12.423C14.7978 12.5045 14.8376 12.5796 14.8952 12.6397C15.0638 12.8049 15.3335 12.8049 15.5021 12.6397C15.6172 12.5272 15.6561 12.3578 15.6018 12.2063C15.5223 11.8457 15.3647 11.5069 15.1401 11.2137L15.4739 10.88C15.4859 10.8678 15.4929 10.8515 15.4934 10.8344C15.4934 10.401 15.086 10.284 14.8801 10.492L14.6633 10.7087C13.9872 10.1561 13.2221 10.1323 12.7128 10.6524C12.2035 11.1725 12.1884 11.788 12.7432 12.7351L13.0293 13.2032C13.2872 13.6952 13.246 13.8946 13.0574 14.0701C12.8407 14.2868 12.5503 14.263 12.2339 14.0094C12.2339 14.0094 12.1927 13.9726 12.1342 13.9141C12.0423 13.823 11.9582 13.7244 11.8828 13.6193C11.6898 13.3124 11.5608 12.9696 11.5035 12.6116C11.499 12.4393 11.3929 12.2861 11.2332 12.2213C11.0736 12.1565 10.8907 12.1924 10.7674 12.3128C10.6441 12.4332 10.6039 12.6151 10.6648 12.7763C10.7428 13.2728 10.9448 13.7417 11.2521 14.1395Z" fill="white"/>
<path fill-rule="evenodd" clip-rule="evenodd" d="M20.3125 5.50003L19.0094 4.284C17.3939 2.77645 14.8173 2.82127 13.2524 4.38612L10.1785 7.46005C11.4832 8.76471 14.3125 8.05062 14.3125 8.05062L16.0842 6.27891L24.2625 14.5H27.3125V5.50003H20.3125Z" fill="#0864EE"/>
<path d="M6.71413 11.1264C7.0605 10.78 7.51406 10.6067 7.96791 10.6067C8.38958 10.6067 8.81095 10.7564 9.14698 11.0558C9.76797 11.7524 9.74523 12.8201 9.07641 13.4887L6.85941 15.706C6.19088 16.3742 5.12313 16.3987 4.42567 15.7754C3.80557 15.0791 3.8286 14.0119 4.49713 13.3437L6.71413 11.1264ZM9.07641 13.4887C9.42278 13.1423 9.87663 12.969 10.3305 12.969C10.7519 12.969 11.1732 13.1184 11.509 13.4181C12.1303 14.1144 12.1075 15.1824 11.4387 15.851L9.22169 18.0683C8.55346 18.7362 7.48659 18.761 6.78884 18.1385C6.16785 17.4425 6.19059 16.3745 6.85941 15.706L9.07641 13.4887ZM11.4387 15.851C11.7851 15.5046 12.2386 15.3313 12.6925 15.3313C13.1144 15.3313 13.5364 15.4813 13.8724 15.7816C14.4925 16.4778 14.4695 17.5447 13.801 18.2132L11.584 20.4305C10.9157 21.0985 9.84888 21.1233 9.15112 20.5008C8.53013 19.8048 8.55287 18.7368 9.22169 18.0683L11.4387 15.851ZM13.801 18.2132C14.1473 17.8669 14.6012 17.6935 15.0548 17.6935C15.4767 17.6935 15.8987 17.8435 16.2347 18.1438C16.8548 18.8401 16.8315 19.907 16.1633 20.5755L13.946 22.7928C13.2783 23.4608 12.2112 23.4856 11.5137 22.8634C10.8924 22.1671 10.9152 21.0991 11.584 20.4305L13.801 18.2132Z" fill="#0864EE"/>
</svg>
