<svg width="45" height="46" viewBox="0 0 45 46" fill="none" xmlns="http://www.w3.org/2000/svg">
<path d="M14.5 2.875L22.5 8.875L30.5 2.875" stroke="#3483FA" stroke-miterlimit="10"/>
<path d="M0.5 24.6751L8.7 18.8751L5.5 9.4751" stroke="#3483FA" stroke-miterlimit="10"/>
<path d="M16.9 44.6749L14 35.075L4 35.275" stroke="#3483FA" stroke-miterlimit="10"/>
<path d="M41 35.275L31 35.075L28.1 44.6749" stroke="#3483FA" stroke-miterlimit="10"/>
<path d="M39.5 9.4751L36.3 18.8751L44.5 24.6751" stroke="#3483FA" stroke-miterlimit="10"/>
<path d="M26.5 29.375H18.5L14.5 21.375L22.5 15.375L30.5 21.375L26.5 29.375Z" stroke="#3483FA" stroke-miterlimit="10" stroke-linecap="square"/>
<path d="M22.5 45.375C34.6503 45.375 44.5 35.5253 44.5 23.375C44.5 11.2247 34.6503 1.375 22.5 1.375C10.3497 1.375 0.5 11.2247 0.5 23.375C0.5 35.5253 10.3497 45.375 22.5 45.375Z" stroke="#3483FA" stroke-miterlimit="10" stroke-linecap="square"/>
</svg>
