<svg width="73" height="73" viewBox="0 0 73 73" fill="none" xmlns="http://www.w3.org/2000/svg">
<path d="M72.3281 0.6875H0.328125V72.6875H72.3281V0.6875Z" fill="white"/>
<path d="M31.2314 34.5509C31.2199 34.5856 31.1976 34.6158 31.1679 34.6371C31.1381 34.6585 31.1024 34.6699 31.0658 34.6697H24.2249L29.7671 38.6414C29.795 38.6619 29.8284 38.6734 29.8629 38.6746C29.8974 38.6757 29.9315 38.6663 29.9606 38.6477C31.4933 37.7072 32.8343 37.0547 35.6846 36.3185C35.6846 36.3185 31.3106 39.5504 28.4477 43.172C28.3843 43.2503 28.3361 43.3397 28.3055 43.4357L27.7097 45.2465L33.2447 41.2793C33.2742 41.2573 33.3101 41.2454 33.3469 41.2454C33.3837 41.2454 33.4195 41.2573 33.449 41.2793L38.984 45.2465L36.8699 38.8259C36.8584 38.7916 36.8583 38.7544 36.8696 38.72C36.881 38.6856 36.9032 38.6558 36.9329 38.6351L42.4679 34.6679H35.6279C35.5913 34.6681 35.5556 34.6567 35.5259 34.6353C35.4961 34.614 35.4739 34.5838 35.4623 34.5491L33.3482 28.1294L31.2314 34.5509Z" fill="url(#paint0_linear_1_228)"/>
<path d="M66.9281 36.0206H62.6144V31.7645H60.3257V36.0206H56.0147V38.213H60.3257V42.4682H62.6144V38.213H66.9281V36.0206ZM48.2963 33.0056C49.415 33.0056 50.1296 33.5789 50.1296 34.5275C50.1296 35.5193 49.415 36.2258 48.2963 36.2258H46.5071V33.0065H48.2954L48.2963 33.0056ZM49.7039 38.4749C51.6254 38.2328 53.2139 36.6002 53.2139 34.5275C53.2139 31.8374 51.3581 30.3605 48.3629 30.3605H43.4669V43.9019H46.508V38.5415L50.1512 43.901H53.6828L49.7039 38.4749ZM25.3418 30.3578H16.2878V33.0929H19.2623V43.9001H22.37V33.0929H25.3436V30.3578H25.3418ZM10.5692 35.3222C9.69803 34.9244 9.36233 34.5059 9.36233 33.9542C9.36233 33.3152 9.92123 32.7842 10.7483 32.8076C11.5079 32.8292 12.0668 33.2261 12.4916 34.1756L15.1061 33.0506C14.3915 31.2416 12.9371 30.1832 10.5908 30.1832C8.10953 30.1832 6.27623 31.7933 6.27623 33.9542C6.27623 35.432 6.99083 36.6452 8.82413 37.5488L10.6574 38.4533C11.6861 38.9609 12.1775 39.3362 12.1775 40.0859C12.1775 40.8806 11.5061 41.4539 10.6574 41.4539C9.74123 41.4539 8.91503 40.9463 8.53343 39.7997L5.76143 40.5935C6.38783 42.821 8.24363 44.1224 10.6574 44.1224C13.2728 44.1224 15.2852 42.4682 15.2852 40.0859C15.2852 38.2562 14.3015 37.0205 12.3107 36.116L10.5692 35.3213V35.3222Z" fill="#261E3C"/>
<defs>
<linearGradient id="paint0_linear_1_228" x1="25.0556" y1="46.4174" x2="41.2673" y2="29.9861" gradientUnits="userSpaceOnUse">
<stop stop-color="#FA1660"/>
<stop offset="0.28" stop-color="#FA1660"/>
<stop offset="0.78" stop-color="#FF6E00"/>
<stop offset="1" stop-color="#FF6E00"/>
</linearGradient>
</defs>
</svg>
