<svg width="66" height="46" viewBox="0 0 66 46" fill="none" xmlns="http://www.w3.org/2000/svg">
<path fill-rule="evenodd" clip-rule="evenodd" d="M0.910339 4.06598C0.910339 2.40786 2.28769 1.06348 3.98457 1.06348H61.941C63.6388 1.06348 65.0152 2.40341 65.0152 4.06598V41.2467C65.0152 42.9049 63.6379 44.2493 61.941 44.2493H3.98457C2.28678 44.2493 0.910339 42.9093 0.910339 41.2467V4.06598Z" fill="white"/>
<mask id="mask0_1_635" style="mask-type:luminance" maskUnits="userSpaceOnUse" x="0" y="0" width="66" height="46">
<path d="M65.9255 45.1387H0V0.174316H65.9255V45.1387Z" fill="#484848"/>
</mask>
<g mask="url(#mask0_1_635)">
<path fill-rule="evenodd" clip-rule="evenodd" d="M3.98455 1.95318C2.79154 1.95318 1.82066 2.9011 1.82066 4.06603V41.2468C1.82066 42.412 2.79154 43.3599 3.98455 43.3599H61.941C63.134 43.3599 64.1049 42.412 64.1049 41.2468V4.06603C64.1049 2.9011 63.134 1.95318 61.941 1.95318H3.98455ZM3.98455 45.1387C1.78743 45.1387 -3.05176e-05 43.3928 -3.05176e-05 41.2468V4.06603C-3.05176e-05 1.92027 1.78743 0.174316 3.98455 0.174316H61.941C64.1383 0.174316 65.9256 1.92027 65.9256 4.06603V41.2468C65.9256 43.3928 64.1383 45.1387 61.941 45.1387H3.98455Z" fill="#484848"/>
</g>
<path fill-rule="evenodd" clip-rule="evenodd" d="M17.2895 15.6911C19.8526 15.6911 21.9302 13.6859 21.9302 11.2121C21.9302 8.73838 19.8526 6.73315 17.2895 6.73315C14.7264 6.73315 12.6488 8.73838 12.6488 11.2121C12.6488 13.6859 14.7264 15.6911 17.2895 15.6911Z" fill="white"/>
<path fill-rule="evenodd" clip-rule="evenodd" d="M17.2895 7.62262C15.2325 7.62262 13.5591 9.23271 13.5591 11.2121C13.5591 13.1914 15.2325 14.8017 17.2895 14.8017C19.3464 14.8017 21.0201 13.1914 21.0201 11.2121C21.0201 9.23271 19.3464 7.62262 17.2895 7.62262ZM17.2895 16.5805C14.2287 16.5805 11.7384 14.1722 11.7384 11.2121C11.7384 8.25189 14.2287 5.84375 17.2895 5.84375C20.3503 5.84375 22.8407 8.25189 22.8407 11.2121C22.8407 14.1722 20.3503 16.5805 17.2895 16.5805Z" fill="#484848"/>
<path fill-rule="evenodd" clip-rule="evenodd" d="M48 32.7969C48 31.8045 48.8268 31 49.848 31H58.3194C59.3399 31 60.1672 31.8049 60.1672 32.7969V37.9262C60.1672 38.9186 59.3406 39.7231 58.3194 39.7231H49.848C48.8273 39.7231 48 38.9182 48 37.9262V32.7969Z" fill="#3782F7"/>
<path fill-rule="evenodd" clip-rule="evenodd" d="M10.6129 16.2848C13.5176 16.2848 15.8725 14.012 15.8725 11.2085C15.8725 8.40505 13.5176 6.13232 10.6129 6.13232C7.70826 6.13232 5.35342 8.40505 5.35342 11.2085C5.35342 14.012 7.70826 16.2848 10.6129 16.2848Z" fill="#3782F7"/>
<path fill-rule="evenodd" clip-rule="evenodd" d="M14.8424 24.6277H6.66276C6.16002 24.6277 5.75241 24.2295 5.75241 23.7383C5.75241 23.2471 6.16002 22.8489 6.66276 22.8489H14.8424C15.3452 22.8489 15.7528 23.2471 15.7528 23.7383C15.7528 24.2295 15.3452 24.6277 14.8424 24.6277Z" fill="#484848"/>
<path fill-rule="evenodd" clip-rule="evenodd" d="M11.5916 34.0388H5.67431C5.36002 34.0388 5.10535 33.79 5.10535 33.4829C5.10535 33.1758 5.36002 32.927 5.67431 32.927H11.5916C11.9059 32.927 12.1605 33.1758 12.1605 33.4829C12.1605 33.79 11.9059 34.0388 11.5916 34.0388Z" fill="#484848"/>
<path fill-rule="evenodd" clip-rule="evenodd" d="M24.2115 34.0388H16.0318C15.7175 34.0388 15.4628 33.79 15.4628 33.4829C15.4628 33.1758 15.7175 32.927 16.0318 32.927H24.2115C24.5258 32.927 24.7804 33.1758 24.7804 33.4829C24.7804 33.79 24.5258 34.0388 24.2115 34.0388Z" fill="#484848"/>
<path fill-rule="evenodd" clip-rule="evenodd" d="M20.8535 37.7595H5.67437C5.36008 37.7595 5.10541 37.5107 5.10541 37.2036C5.10541 36.8965 5.36008 36.6477 5.67437 36.6477H20.8535C21.1678 36.6477 21.4224 36.8965 21.4224 37.2036C21.4224 37.5107 21.1678 37.7595 20.8535 37.7595Z" fill="#484848"/>
<path fill-rule="evenodd" clip-rule="evenodd" d="M29.2395 24.6277H21.0598C20.5571 24.6277 20.1494 24.2295 20.1494 23.7383C20.1494 23.2471 20.5571 22.8489 21.0598 22.8489H29.2395C29.7422 22.8489 30.1498 23.2471 30.1498 23.7383C30.1498 24.2295 29.7422 24.6277 29.2395 24.6277Z" fill="#484848"/>
<path fill-rule="evenodd" clip-rule="evenodd" d="M43.6365 24.6277H35.4569C34.9541 24.6277 34.5465 24.2295 34.5465 23.7383C34.5465 23.2471 34.9541 22.8489 35.4569 22.8489H43.6365C44.1393 22.8489 44.5469 23.2471 44.5469 23.7383C44.5469 24.2295 44.1393 24.6277 43.6365 24.6277Z" fill="#484848"/>
<path fill-rule="evenodd" clip-rule="evenodd" d="M58.2174 24.6277H49.6699C49.1672 24.6277 48.7596 24.2295 48.7596 23.7383C48.7596 23.2471 49.1672 22.8489 49.6699 22.8489H58.2174C58.7201 22.8489 59.1277 23.2471 59.1277 23.7383C59.1277 24.2295 58.7201 24.6277 58.2174 24.6277Z" fill="#484848"/>
</svg>
