<svg width="24" height="17" viewBox="0 0 24 17" fill="none" xmlns="http://www.w3.org/2000/svg">
<path fill-rule="evenodd" clip-rule="evenodd" d="M1.584 0.5H22.416C23.2908 0.5 24 1.20918 24 2.084V14.916C24 15.7908 23.2908 16.5 22.416 16.5H1.584C0.709181 16.5 0 15.7908 0 14.916L0 2.084C0 1.20918 0.709181 0.5 1.584 0.5Z" fill="#5697FA"/>
<path d="M24 3.5H0V6.5H24V3.5Z" fill="#0864EE"/>
<path d="M22 7.5H2V10.5H22V7.5Z" fill="white"/>
<path d="M11.5 13.5H2.5C2.22386 13.5 2 13.7239 2 14C2 14.2761 2.22386 14.5 2.5 14.5H11.5C11.7761 14.5 12 14.2761 12 14C12 13.7239 11.7761 13.5 11.5 13.5Z" fill="#0864EE"/>
<path d="M16.5 11.5H2.5C2.22386 11.5 2 11.7239 2 12C2 12.2761 2.22386 12.5 2.5 12.5H16.5C16.7761 12.5 17 12.2761 17 12C17 11.7239 16.7761 11.5 16.5 11.5Z" fill="#0864EE"/>
</svg>
